<?xml version="1.0" encoding="UTF-8"?>
<svg width="50px" height="75px" viewBox="0 0 50 75" version="1.1" xmlns="http://www.w3.org/2000/svg" xmlns:xlink="http://www.w3.org/1999/xlink">
    <!-- Generator: Sketch 62 (91390) - https://sketch.com -->
    <title>Group 2</title>
    <desc>Created with Sketch.</desc>
    <g id="Page-1" stroke="none" stroke-width="1" fill="none" fill-rule="evenodd">
        <g id="&lt;!---Generator:-Adobe-Illustrator-24.0.3,-SVG-Export-Plug-In----&gt;-&lt;svg-version=&quot;1.1&quot;-xmlns=&quot;http://www.w3.org/2000/svg&quot;-xmlns:xlink=&quot;http://www.w3.org/1999/xlink&quot;-x=&quot;0px&quot;-y=&quot;0px&quot;-width=&quot;72.5px&quot;---height=&quot;135px&quot;-viewBox=&quot;0-0-72.5-135&quot;-style=&quot;enable-background:new-0-0-72.5-135;&quot;-xml:space=&quot;preserve&quot;&gt;-&lt;style-type=&quot;text/css&quot;&gt;--.st0{opacity:0.9;fill:#C1983F;}--.st1{opacity:0.9;fill:none;stroke:#C1983F;stroke-width:5;stroke-miterlimit:10;}-&lt;/style&gt;-&lt;defs&gt;-&lt;/defs&gt;-&lt;g&gt;--&lt;path-class=&quot;st0&quot;-d=&quot;M36.2,0H2.2l17,24.9l14.3,20.9H39l14.3-20.9L70.3,0H36.2z-M10.6,4.9h22.6l-9.9,17.1L10.6,4.9z-M36.2,40.6---L25.8,25.4L36.2,9l10.2,16.5L36.2,40.6z-M49.5,22l-10.8-17h21.6L49.5,22z&quot;/&gt;--&lt;polygon-class=&quot;st1&quot;-points=&quot;36.8,53-35.5,53-3.7,132.5-68.8,132.5--&quot;/&gt;-&lt;/g&gt;-&lt;/svg&gt;-" transform="translate(-704.000000, -325.000000)">
            <g id="Group-2" transform="translate(704.000000, 325.000000)">
                <g id="cocktail-copy" transform="translate(14.000000, 20.000000)">
                    <polygon id="Path" fill="#F4F4F5" fill-rule="nonzero" points="0.305555556 1.13888889 10.8472222 13.6666667 21.3888889 1.13888889"></polygon>
                    <polygon id="Path" fill="#E9E9EC" fill-rule="nonzero" points="2.09190606 1.13888889 0.305555556 1.13888889 11.0234914 13.6666667 11.9166667 12.6226666"></polygon>
                    <polygon id="Path" fill="#F4F4F5" fill-rule="nonzero" points="14.6666667 26.8055556 7.63888889 26.8055556 11.1527778 24.9722222"></polygon>
                    <path d="M3.07028286,4.80555556 C3.41700107,4.80555556 3.60751765,4.38143143 3.38329007,4.11685347 L1.30715353,1.66770318 L10.5873971,1.66770318 C10.8153032,1.66770318 11,1.48089982 11,1.25051826 C11,1.0201367 10.8153032,0.833333333 10.5873971,0.833333333 L0.410023607,0.833333333 C0.0650623266,0.833333333 -0.128254348,1.25656924 0.0967967878,1.52203542 L2.75683643,4.65988779 C2.83842364,4.75614843 2.95399638,4.80555556 3.07028286,4.80555556 Z" id="Path" stroke="#000000" stroke-width="1.1" fill="#000000" fill-rule="nonzero"></path>
                    <path d="M14.674935,26.3316748 L11.3559609,24.6899091 L11.3559609,13.6855456 L21.9024324,1.51257515 C22.1292757,1.25081027 21.9344196,0.833333333 21.5867112,0.833333333 L13.158145,0.833333333 C12.928424,0.833333333 12.7422564,1.0175707 12.7422564,1.24478765 C12.7422564,1.47200461 12.928424,1.65624197 13.158145,1.65624197 L20.682437,1.65624197 L10.9400722,12.9010722 L4.39670196,5.34854487 C4.24927317,5.17832378 3.98236286,5.15801114 3.81030726,5.30392275 C3.63825165,5.44983436 3.61772009,5.71384403 3.76520423,5.88406512 L10.5241835,13.6855456 L10.5241835,24.6899091 L7.20520942,26.3316748 C7.03276643,26.416977 6.94217299,26.6084963 6.9864459,26.7942119 C7.03082949,26.9799275 7.19834712,27.1111111 7.39121099,27.1111111 L14.4889334,27.1111111 C14.6767612,27.1111111 14.845275,26.9816248 14.8917616,26.801658 C14.9397423,26.6162709 14.8480421,26.4172508 14.674935,26.3316748 Z M9.1529408,26.2882025 L10.9400722,25.4041369 L12.7272036,26.2882025 L9.1529408,26.2882025 Z" id="Shape" stroke="#000000" stroke-width="1.1" fill="#000000" fill-rule="nonzero"></path>
                    <path d="M6.7622723,3.58333333 L15.5432833,3.58333333 C16.095568,3.58333333 16.5432833,4.03104858 16.5432833,4.58333333 C16.5432833,4.82261047 16.4574865,5.05395622 16.3014685,5.2353726 L11.910963,10.3406115 C11.5508516,10.7593457 10.9194726,10.8068688 10.5007385,10.4467575 C10.4627471,10.4140849 10.4272652,10.3786029 10.3945926,10.3406115 L6.0040871,5.2353726 C5.64397576,4.81663848 5.69149891,4.18525948 6.11023303,3.82514814 C6.29164941,3.66913005 6.52299517,3.58333333 6.7622723,3.58333333 Z" id="Path-2" fill="#BC9A37"></path>
                </g>
                <g id="noun_food-menu_1896996" fill="#000000" fill-rule="nonzero">
                    <path d="M48.7100103,8.97014746 L41.1377709,8.97014746 L41.1377709,1.28864875 C41.1390981,0.897346979 40.9636113,0.526486374 40.6604747,0.279967097 C40.3516228,0.0344229646 39.9477311,-0.0560821054 39.5639835,0.0342625933 L0.954592363,8.90548838 C0.546710826,9.01659317 0.218998198,9.32096054 0.0773993808,9.72019278 L0.0773993808,9.72019278 C0.0393218098,9.83792044 0.0133863836,9.95925191 0,10.0822836 C0,10.0822836 0,10.1598745 0,10.2116018 L0,73.7068184 C0,74.4210229 0.577548052,75 1.28998968,75 L48.7100103,75 C49.4224519,75 50,74.4210229 50,73.7068184 L50,10.2633291 C50,9.54912458 49.4224519,8.97014746 48.7100103,8.97014746 Z M38.5577915,8.97014746 L12.2291022,8.97014746 L38.5577915,2.91805756 L38.5577915,8.97014746 Z M47.4200206,72.4136368 L2.52837977,72.4136368 L2.52837977,64.7580017 C2.52837977,64.7580017 2.52837977,64.7580017 2.52837977,64.7580017 L2.52837977,11.5565107 L47.4200206,11.5565107 L47.4200206,72.4136368 Z" id="Shape"></path>
                    <path d="M10.2840467,56 L40.7159533,56 C41.4251127,56 42,55.3284271 42,54.5 C42,53.6715729 41.4251127,53 40.7159533,53 L10.2840467,53 C9.57488729,53 9,53.6715729 9,54.5 C9,55.3284271 9.57488729,56 10.2840467,56 Z" id="Path"></path>
                    <path d="M40.6526946,61 L34.3473054,61 C33.6032092,61 33,61.6715729 33,62.5 C33,63.3284271 33.6032092,64 34.3473054,64 L40.6526946,64 C41.3967908,64 42,63.3284271 42,62.5 C42,61.6715729 41.3967908,61 40.6526946,61 Z" id="Path"></path>
                    <path d="M29.6166008,61 L25.3833992,61 C24.6193689,61 24,61.6715729 24,62.5 C24,63.3284271 24.6193689,64 25.3833992,64 L29.6166008,64 C30.3806311,64 31,63.3284271 31,62.5 C31,61.6715729 30.3806311,61 29.6166008,61 Z" id="Path"></path>
                    <path d="M20.7341772,61 L10.2658228,61 C9.56672816,61 9,61.6715729 9,62.5 C9,63.3284271 9.56672816,64 10.2658228,64 L20.7341772,64 C21.4332718,64 22,63.3284271 22,62.5 C22,61.6715729 21.4332718,61 20.7341772,61 L20.7341772,61 Z" id="Path"></path>
                </g>
            </g>
        </g>
    </g>
</svg>