<?xml version="1.0" encoding="UTF-8"?>
<svg width="78px" height="94px" viewBox="0 0 78 94" version="1.1" xmlns="http://www.w3.org/2000/svg" xmlns:xlink="http://www.w3.org/1999/xlink">
    <!-- Generator: Sketch 62 (91390) - https://sketch.com -->
    <title>cocktail</title>
    <desc>Created with Sketch.</desc>
    <g id="Page-1" stroke="none" stroke-width="1" fill="none" fill-rule="evenodd">
        <g id="&lt;!---Generator:-Adobe-Illustrator-24.0.3,-SVG-Export-Plug-In----&gt;-&lt;svg-version=&quot;1.1&quot;-xmlns=&quot;http://www.w3.org/2000/svg&quot;-xmlns:xlink=&quot;http://www.w3.org/1999/xlink&quot;-x=&quot;0px&quot;-y=&quot;0px&quot;-width=&quot;72.5px&quot;---height=&quot;135px&quot;-viewBox=&quot;0-0-72.5-135&quot;-style=&quot;enable-background:new-0-0-72.5-135;&quot;-xml:space=&quot;preserve&quot;&gt;-&lt;style-type=&quot;text/css&quot;&gt;--.st0{opacity:0.9;fill:#C1983F;}--.st1{opacity:0.9;fill:none;stroke:#C1983F;stroke-width:5;stroke-miterlimit:10;}-&lt;/style&gt;-&lt;defs&gt;-&lt;/defs&gt;-&lt;g&gt;--&lt;path-class=&quot;st0&quot;-d=&quot;M36.2,0H2.2l17,24.9l14.3,20.9H39l14.3-20.9L70.3,0H36.2z-M10.6,4.9h22.6l-9.9,17.1L10.6,4.9z-M36.2,40.6---L25.8,25.4L36.2,9l10.2,16.5L36.2,40.6z-M49.5,22l-10.8-17h21.6L49.5,22z&quot;/&gt;--&lt;polygon-class=&quot;st1&quot;-points=&quot;36.8,53-35.5,53-3.7,132.5-68.8,132.5--&quot;/&gt;-&lt;/g&gt;-&lt;/svg&gt;-" transform="translate(-523.000000, -325.000000)">
            <g id="cocktail" transform="translate(523.000000, 327.000000)">
                <polygon id="Path" fill="#F4F4F5" fill-rule="nonzero" points="1 7 35.5 48 70 7"></polygon>
                <polygon id="Path" fill="#E9E9EC" fill-rule="nonzero" points="6.846238 7 1 7 36.076881 48 39 44.5832724"></polygon>
                <polygon id="Path" fill="#F4F4F5" fill-rule="nonzero" points="48 91 25 91 36.5 85"></polygon>
                <g id="Group" transform="translate(4.000000, 22.000000)" fill="#BC9A37" fill-rule="nonzero">
                    <path d="M66.1537144,0.13031054 C66.1537144,3.31751916 68.7249836,7.34400686 71.8968425,7.34400686 C68.7249836,7.34400686 66.1537144,11.3704946 66.1537144,14.5577032 C66.1537144,11.3704946 63.5824452,7.34400686 60.4105862,7.34400686 C63.5822661,7.34400686 66.1537144,3.31751916 66.1537144,0.13031054 Z" id="Path"></path>
                    <path d="M50.3597985,43.4126684 C50.3597985,46.5998771 52.9310677,50.6263648 56.1029267,50.6263648 C52.9310677,50.6263648 50.3597985,54.6528525 50.3597985,57.8400611 C50.3597985,54.6528525 47.7885293,50.6263648 44.6166704,50.6263648 C47.7885293,50.6265448 50.3597985,46.5998771 50.3597985,43.4126684 Z" id="Path"></path>
                    <path d="M5.84988373,18.886029 C5.84988373,22.0732376 8.42115293,26.0997253 11.5930119,26.0997253 C8.42115293,26.0997253 5.84988373,30.126213 5.84988373,33.3134216 C5.84988373,30.126213 3.27861453,26.0997253 0.106755587,26.0997253 C3.27861453,26.0997253 5.84988373,22.0732376 5.84988373,18.886029 Z" id="Path"></path>
                </g>
                <path d="M10.0481985,19 C11.1829126,19 11.8064214,17.6119574 11.0725857,16.7460659 L4.27795701,8.73066495 L34.6496632,8.73066495 C35.3955379,8.73066495 36,8.11930849 36,7.36533248 C36,6.61135646 35.3955379,6 34.6496632,6 L1.34189544,6 C0.212931251,6 -0.419741504,7.3851357 0.316789487,8.25393409 L9.02237377,18.5232691 C9.28938647,18.8383039 9.66762451,19 10.0481985,19 Z" id="Path" fill="#000000" fill-rule="nonzero"></path>
                <path d="M48.0270599,89.4491176 L37.1649628,84.0760663 L37.1649628,48.0617856 L71.6806878,8.22297323 C72.4230841,7.36628816 71.7853731,6 70.6474184,6 L43.0630201,6 C42.3112057,6 41.70193,6.60295864 41.70193,7.34657777 C41.70193,8.0901969 42.3112057,8.69315554 43.0630201,8.69315554 L67.6879755,8.69315554 L35.8038726,45.4944182 L14.3892064,20.7770559 C13.9067122,20.2199687 13.0331875,20.153491 12.4700965,20.6310199 C11.9070054,21.1085488 11.8398112,21.9725805 12.3224866,22.5296677 L34.4427825,48.0617856 L34.4427825,84.0760663 L23.5806854,89.4491176 C23.0163265,89.7282884 22.7198389,90.3550787 22.864732,90.9628753 C23.0099874,91.5706719 23.5582269,92 24.1894178,92 L47.4183275,92 C48.0330368,92 48.5845364,91.5762267 48.7366742,90.9872445 C48.8937022,90.380523 48.5935922,89.7291843 48.0270599,89.4491176 Z M29.955079,89.3068445 L35.8038726,86.4135389 L41.6526663,89.3068445 L29.955079,89.3068445 Z" id="Shape" fill="#000000" fill-rule="nonzero"></path>
                <path d="M76.6708861,27.1578665 C74.4346497,27.1578665 72.3291139,23.8815607 72.3291139,21.3421335 C72.3291139,20.6009686 71.7341519,20 71,20 C70.2658481,20 69.6708861,20.6009686 69.6708861,21.3421335 C69.6708861,23.8815607 67.5653503,27.1578665 65.3291139,27.1578665 C64.594962,27.1578665 64,27.7588351 64,28.5 C64,29.2411649 64.594962,29.8421335 65.3291139,29.8421335 C67.5653503,29.8421335 69.6708861,33.1184393 69.6708861,35.6578665 C69.6708861,36.3990314 70.2658481,37 71,37 C71.7341519,37 72.3291139,36.3990314 72.3291139,35.6578665 C72.3291139,33.1184393 74.4346497,29.8421335 76.6708861,29.8421335 C77.405038,29.8421335 78,29.2411649 78,28.5 C78,27.7588351 77.405038,27.1578665 76.6708861,27.1578665 Z M71.0001769,30.9669181 C70.4441244,30.0109047 69.7340256,29.1561541 68.9112661,28.5 C69.7342025,27.8438459 70.4441244,26.9889167 71.0001769,26.0330819 C71.5562293,26.9890953 72.2663281,27.8438459 73.0890876,28.5 C72.2663281,29.1561541 71.5562293,30.0110833 71.0001769,30.9669181 Z" id="Shape" fill="#000000" fill-rule="nonzero"></path>
                <path d="M60.6708861,71.1578665 C58.4346497,71.1578665 56.3291139,67.8815607 56.3291139,65.3421335 C56.3291139,64.6009686 55.7341519,64 55,64 C54.2658481,64 53.6708861,64.6009686 53.6708861,65.3421335 C53.6708861,67.8815607 51.5653503,71.1578665 49.3291139,71.1578665 C48.594962,71.1578665 48,71.7588351 48,72.5 C48,73.2411649 48.594962,73.8421335 49.3291139,73.8421335 C51.5653503,73.8421335 53.6708861,77.1184393 53.6708861,79.6578665 C53.6708861,80.3990314 54.2658481,81 55,81 C55.7341519,81 56.3291139,80.3990314 56.3291139,79.6578665 C56.3291139,77.1184393 58.4346497,73.8421335 60.6708861,73.8421335 C61.405038,73.8421335 62,73.2411649 62,72.5 C62,71.7588351 61.405038,71.1578665 60.6708861,71.1578665 Z M55,74.9669181 C54.4439475,74.0109047 53.7338488,73.1561541 52.9110892,72.5 C53.7340256,71.8438459 54.4439475,70.9889167 55,70.0330819 C55.5560525,70.9890953 56.2661512,71.8438459 57.0889108,72.5 C56.2661512,73.1561541 55.5560525,74.0109047 55,74.9669181 Z" id="Shape" fill="#000000" fill-rule="nonzero"></path>
                <path d="M15.6708861,46.1578665 C13.4346497,46.1578665 11.3291139,42.8815607 11.3291139,40.3421335 C11.3291139,39.6009686 10.7341519,39 10,39 C9.26584805,39 8.67088608,39.6009686 8.67088608,40.3421335 C8.67088608,42.8815607 6.56535031,46.1578665 4.32911392,46.1578665 C3.59496197,46.1578665 3,46.7588351 3,47.5 C3,48.2411649 3.59496197,48.8421335 4.32911392,48.8421335 C6.56535031,48.8421335 8.67088608,52.1184393 8.67088608,54.6578665 C8.67088608,55.3892087 9.27575229,56 10,56 C10.7242477,56 11.3291139,55.3892087 11.3291139,54.6578665 C11.3291139,52.1184393 13.4346497,48.8421335 15.6708861,48.8421335 C16.405038,48.8421335 17,48.2411649 17,47.5 C17,46.7588351 16.405038,46.1578665 15.6708861,46.1578665 Z M10,49.9669181 C9.44394755,49.0109047 8.73384876,48.1561541 7.91108921,47.5 C8.73402562,46.8438459 9.44394755,45.9889167 10,45.0330819 C10.5560525,45.9890953 11.2661512,46.8438459 12.0889108,47.5 C11.2663281,48.1561541 10.5562293,49.0110833 10,49.9669181 Z" id="Shape" fill="#000000" fill-rule="nonzero"></path>
                <path d="M17.178939,15 L55.821061,15 C56.3733458,15 56.821061,15.4477153 56.821061,16 C56.821061,16.2392771 56.7352643,16.4706229 56.5792462,16.6520393 L37.2581852,39.1183893 C36.8980739,39.5371234 36.2666949,39.5846466 35.8479607,39.2245352 C35.8099693,39.1918626 35.7744874,39.1563807 35.7418148,39.1183893 L16.4207538,16.6520393 C16.0606424,16.2333051 16.1081656,15.6019261 16.5268997,15.2418148 C16.7083161,15.0857967 16.9396618,15 17.178939,15 Z" id="Path-2" fill="#BC9A37"></path>
                <path d="M45,16.4316703 C45,20.6048962 41.6355485,24 37.5,24 C33.3644515,24 30,20.6046638 30,16.4316703 C30,12.7462814 32.6246776,9.66911993 36.0865526,9 C35.8239928,10.4793152 35.7608863,11.767586 35.7691776,12.7214131 C35.7776993,13.6805857 36.5510994,14.4524326 37.4997697,14.4524326 C37.5048366,14.4524326 37.5103642,14.4524326 37.5154312,14.4524326 C38.4714716,14.4438333 39.2393441,13.6547877 39.2308224,12.6902696 C39.2229916,11.8059343 39.2890922,10.5736752 39.5795203,9.16176015 C42.7062861,10.0737527 45,12.9865975 45,16.4316703 Z" id="Path" fill="#000000" transform="translate(37.500000, 16.500000) rotate(8.000000) translate(-37.500000, -16.500000) "></path>
                <path d="M38,13 C39.8381961,4.83197447 43.2379121,0.498641138 48.199148,0" id="Path-3" stroke="#000000" stroke-width="2.5" stroke-linecap="round" stroke-linejoin="round"></path>
            </g>
        </g>
    </g>
</svg>