<?xml version="1.0" encoding="UTF-8"?>
<svg width="162px" height="118px" viewBox="0 0 162 118" version="1.1" xmlns="http://www.w3.org/2000/svg" xmlns:xlink="http://www.w3.org/1999/xlink">
    <!-- Generator: Sketch 62 (91390) - https://sketch.com -->
    <title>Group 21 Copy</title>
    <desc>Created with Sketch.</desc>
    <defs>
        <polygon id="path-1" points="0 0.0942 29.4336 0.0942 29.4336 35.2862 0 35.2862"></polygon>
        <polygon id="path-3" points="0 117.492 161.416 117.492 161.416 0 0 0"></polygon>
    </defs>
    <g id="Page-1" stroke="none" stroke-width="1" fill="none" fill-rule="evenodd">
        <g id="&lt;!---Generator:-Adobe-Illustrator-24.0.3,-SVG-Export-Plug-In----&gt;-&lt;svg-version=&quot;1.1&quot;-xmlns=&quot;http://www.w3.org/2000/svg&quot;-xmlns:xlink=&quot;http://www.w3.org/1999/xlink&quot;-x=&quot;0px&quot;-y=&quot;0px&quot;-width=&quot;72.5px&quot;---height=&quot;135px&quot;-viewBox=&quot;0-0-72.5-135&quot;-style=&quot;enable-background:new-0-0-72.5-135;&quot;-xml:space=&quot;preserve&quot;&gt;-&lt;style-type=&quot;text/css&quot;&gt;--.st0{opacity:0.9;fill:#C1983F;}--.st1{opacity:0.9;fill:none;stroke:#C1983F;stroke-width:5;stroke-miterlimit:10;}-&lt;/style&gt;-&lt;defs&gt;-&lt;/defs&gt;-&lt;g&gt;--&lt;path-class=&quot;st0&quot;-d=&quot;M36.2,0H2.2l17,24.9l14.3,20.9H39l14.3-20.9L70.3,0H36.2z-M10.6,4.9h22.6l-9.9,17.1L10.6,4.9z-M36.2,40.6---L25.8,25.4L36.2,9l10.2,16.5L36.2,40.6z-M49.5,22l-10.8-17h21.6L49.5,22z&quot;/&gt;--&lt;polygon-class=&quot;st1&quot;-points=&quot;36.8,53-35.5,53-3.7,132.5-68.8,132.5--&quot;/&gt;-&lt;/g&gt;-&lt;/svg&gt;-" transform="translate(-569.000000, -169.000000)">
            <g id="Group-21-Copy" transform="translate(569.000000, 169.000000)">
                <path d="M91.9707,8.3599 L87.8667,1.8779 L96.0747,1.8779 L91.9707,8.3599 Z M86.9207,15.4549 L82.9427,9.6679 L86.9207,3.4249 L90.8167,9.6959 L86.9207,15.4549 Z M77.1827,1.8779 L85.7807,1.8779 L82.0247,8.3879 L77.1827,1.8779 Z M86.9207,0.0009 L73.9547,0.0009 L80.4377,9.4659 L85.8917,17.4299 L87.9497,17.4299 L93.4047,9.4659 L99.8867,0.0009 L86.9207,0.0009 Z" id="Fill-1" fill="#C1983F"></path>
                <polygon id="Stroke-3" stroke="#C1983F" stroke-width="2" points="87.1113 20.5689 86.6513 20.5689 74.5423 50.7779 99.2993 50.7779"></polygon>
                <g id="Group-7" transform="translate(0.000000, 15.492000)">
                    <mask id="mask-2" fill="white">
                        <use xlink:href="#path-1"></use>
                    </mask>
                    <g id="Clip-6"></g>
                    <path d="M27.9726,29.3992 L29.4336,30.7102 C26.0816,33.7602 22.1356,35.2862 17.5956,35.2862 C12.7256,35.2862 8.5756,33.5712 5.1456,30.1402 C1.7146,26.7112 -0.0004,22.5602 -0.0004,17.6902 C-0.0004,12.8352 1.7146,8.6882 5.1456,5.2512 C8.5756,1.8132 12.7256,0.0942 17.5956,0.0942 C22.1356,0.0942 26.0816,1.6202 29.4336,4.6702 L27.9726,6.0032 C25.0216,3.3812 21.5626,2.0712 17.5956,2.0712 C13.2846,2.0712 9.6036,3.5962 6.5526,6.6472 C3.5016,9.6982 1.9766,13.3792 1.9766,17.6902 C1.9766,22.0162 3.5016,25.7042 6.5526,28.7542 C9.6036,31.8052 13.2846,33.3312 17.5956,33.3312 C21.5626,33.3312 25.0216,32.0202 27.9726,29.3992" id="Fill-5" fill="#FFFFFF" mask="url(#mask-2)"></path>
                </g>
                <path d="M44.0986,18.358 L44.0986,36.899 L49.9426,36.899 C52.4916,36.899 54.6716,35.994 56.4846,34.181 C58.2956,32.37 59.2026,30.182 59.2026,27.618 C59.2026,25.054 58.2956,22.87 56.4846,21.065 C54.6716,19.26 52.4916,18.358 49.9426,18.358 L44.0986,18.358 Z M50.5226,38.833 C50.3356,38.847 50.1426,38.854 49.9426,38.854 L44.0986,38.854 L44.0986,50.778 L42.1646,50.778 L42.1646,16.403 L51.1886,16.403 C53.8096,16.761 56.0366,17.857 57.8696,19.69 C60.0616,21.881 61.1576,24.524 61.1576,27.618 C61.1576,30.726 60.0616,33.376 57.8696,35.567 C56.3516,37.086 54.6116,38.081 52.6496,38.553 L60.5776,50.778 L58.1926,50.778 L50.5226,38.833 Z" id="Fill-8" fill="#FFFFFF"></path>
                <polygon id="Fill-10" fill="#FFFFFF" points="127.9599 16.4029 127.9599 18.3369 114.8549 18.3369 114.8549 32.6239 127.9599 32.6239 127.9599 34.5569 114.8549 34.5569 114.8549 50.7779 112.9209 50.7779 112.9209 16.4029"></polygon>
                <polygon id="Fill-12" fill="#FFFFFF" points="152.7148 18.3365 152.7148 50.7775 150.7808 50.7775 150.7808 18.3365 142.0798 18.3365 142.0798 16.4025 161.4158 16.4025 161.4158 18.3365"></polygon>
                <path d="M84.996,69.6187 C84.996,70.1567 85.186,70.6027 85.568,70.9577 C85.95,71.3127 86.448,71.4907 87.063,71.4907 C87.522,71.4907 87.941,71.4017 88.318,71.2237 C88.695,71.0477 89.065,70.7547 89.43,70.3477 L86.674,67.5527 C86.101,67.7777 85.679,68.0627 85.406,68.4097 C85.133,68.7567 84.996,69.1597 84.996,69.6187 L84.996,69.6187 Z M91.611,68.9937 C91.314,69.4987 91.029,69.9317 90.756,70.2957 L92.719,72.2707 L91.341,72.2707 L90.132,71.0497 C89.672,71.5437 89.195,71.8957 88.701,72.1087 C88.207,72.3207 87.657,72.4277 87.051,72.4277 C86.427,72.4277 85.878,72.3117 85.406,72.0827 C84.934,71.8527 84.565,71.5327 84.301,71.1207 C84.036,70.7087 83.904,70.2217 83.904,69.6577 C83.904,69.0427 84.084,68.4947 84.444,68.0137 C84.804,67.5327 85.326,67.1537 86.011,66.8767 C85.716,66.5557 85.504,66.2497 85.373,65.9597 C85.243,65.6697 85.179,65.3547 85.179,65.0167 C85.179,64.4357 85.384,63.9577 85.796,63.5807 C86.207,63.2037 86.773,63.0147 87.492,63.0147 C87.961,63.0147 88.368,63.1037 88.715,63.2817 C88.888,63.3707 89.042,63.4757 89.176,63.5987 L88.344,64.1977 C88.097,63.9987 87.813,63.8987 87.492,63.8987 C87.102,63.8987 86.799,64.0037 86.582,64.2117 C86.366,64.4197 86.258,64.6827 86.258,65.0047 C86.258,65.2817 86.333,65.5507 86.485,65.8097 C86.637,66.0697 86.864,66.3607 87.167,66.6807 L90.04,69.5797 C90.187,69.3677 90.341,69.1307 90.503,68.8677 C90.53,68.8237 90.558,68.7787 90.585,68.7327 L91.611,68.9937 Z" id="Fill-14" fill="#FFFFFF"></path>
                <polygon id="Fill-16" fill="#FFFFFF" points="46.5947 83.1167 59.5067 105.4607 72.3977 83.1167 74.6107 83.1167 74.5247 83.2667 74.5247 117.4917 72.5907 117.4917 72.5907 86.6187 59.5067 109.2627 46.4017 86.6187 46.4017 117.4917 44.4677 117.4917 44.4677 83.2667 44.3817 83.1167"></polygon>
                <mask id="mask-4" fill="white">
                    <use xlink:href="#path-3"></use>
                </mask>
                <g id="Clip-19"></g>
                <polygon id="Fill-18" fill="#FFFFFF" mask="url(#mask-4)" points="86.845 117.492 88.779 117.492 88.779 83.117 86.845 83.117"></polygon>
                <polygon id="Fill-20" fill="#FFFFFF" mask="url(#mask-4)" points="100.8652 117.4917 111.7582 98.6067 102.8202 83.1167 105.0332 83.1167 112.8532 96.6947 120.7172 83.1167 122.9292 83.1167 113.9492 98.6067 124.8852 117.4917 122.6722 117.4917 112.8532 100.5187 103.0562 117.4917"></polygon>
            </g>
        </g>
    </g>
</svg>