<?xml version="1.0" encoding="UTF-8"?>
<svg width="280px" height="52px" viewBox="0 0 280 52" version="1.1" xmlns="http://www.w3.org/2000/svg" xmlns:xlink="http://www.w3.org/1999/xlink">
    <!-- Generator: Sketch 62 (91390) - https://sketch.com -->
    <title>Group</title>
    <desc>Created with Sketch.</desc>
    <defs>
        <polygon id="path-1" points="0 0.0942 29.4336 0.0942 29.4336 35.2862 0 35.2862"></polygon>
    </defs>
    <g id="Page-1" stroke="none" stroke-width="1" fill="none" fill-rule="evenodd">
        <g id="&lt;!---Generator:-Adobe-Illustrator-24.0.3,-SVG-Export-Plug-In----&gt;-&lt;svg-version=&quot;1.1&quot;-xmlns=&quot;http://www.w3.org/2000/svg&quot;-xmlns:xlink=&quot;http://www.w3.org/1999/xlink&quot;-x=&quot;0px&quot;-y=&quot;0px&quot;-width=&quot;72.5px&quot;---height=&quot;135px&quot;-viewBox=&quot;0-0-72.5-135&quot;-style=&quot;enable-background:new-0-0-72.5-135;&quot;-xml:space=&quot;preserve&quot;&gt;-&lt;style-type=&quot;text/css&quot;&gt;--.st0{opacity:0.9;fill:#C1983F;}--.st1{opacity:0.9;fill:none;stroke:#C1983F;stroke-width:5;stroke-miterlimit:10;}-&lt;/style&gt;-&lt;defs&gt;-&lt;/defs&gt;-&lt;g&gt;--&lt;path-class=&quot;st0&quot;-d=&quot;M36.2,0H2.2l17,24.9l14.3,20.9H39l14.3-20.9L70.3,0H36.2z-M10.6,4.9h22.6l-9.9,17.1L10.6,4.9z-M36.2,40.6---L25.8,25.4L36.2,9l10.2,16.5L36.2,40.6z-M49.5,22l-10.8-17h21.6L49.5,22z&quot;/&gt;--&lt;polygon-class=&quot;st1&quot;-points=&quot;36.8,53-35.5,53-3.7,132.5-68.8,132.5--&quot;/&gt;-&lt;/g&gt;-&lt;/svg&gt;-" transform="translate(-136.000000, -355.000000)">
            <g id="Group" transform="translate(136.000000, 355.000000)">
                <path d="M91.9707,8.359 L87.8667,1.877 L96.0747,1.877 L91.9707,8.359 Z M86.9207,15.454 L82.9427,9.667 L86.9207,3.424 L90.8167,9.695 L86.9207,15.454 Z M77.1827,1.877 L85.7807,1.877 L82.0247,8.387 L77.1827,1.877 Z M86.9207,4.97379915e-14 L73.9547,4.97379915e-14 L80.4377,9.465 L85.8917,17.429 L87.9497,17.429 L93.4047,9.465 L99.8867,4.97379915e-14 L86.9207,4.97379915e-14 Z" id="Fill-1" fill="#C1983F"></path>
                <polygon id="Stroke-3" stroke="#C1983F" stroke-width="2" points="87.1113 20.568 86.6513 20.568 74.5423 50.777 99.2993 50.777"></polygon>
                <g id="Group-7" transform="translate(0.000000, 15.491100)">
                    <mask id="mask-2" fill="white">
                        <use xlink:href="#path-1"></use>
                    </mask>
                    <g id="Clip-6"></g>
                    <path d="M27.9726,29.3992 L29.4336,30.7102 C26.0816,33.7602 22.1356,35.2862 17.5956,35.2862 C12.7256,35.2862 8.5756,33.5712 5.1456,30.1402 C1.7146,26.7112 -0.0004,22.5602 -0.0004,17.6902 C-0.0004,12.8352 1.7146,8.6882 5.1456,5.2512 C8.5756,1.8132 12.7256,0.0942 17.5956,0.0942 C22.1356,0.0942 26.0816,1.6202 29.4336,4.6702 L27.9726,6.0032 C25.0216,3.3812 21.5626,2.0712 17.5956,2.0712 C13.2846,2.0712 9.6036,3.5962 6.5526,6.6472 C3.5016,9.6982 1.9766,13.3792 1.9766,17.6902 C1.9766,22.0162 3.5016,25.7042 6.5526,28.7542 C9.6036,31.8052 13.2846,33.3312 17.5956,33.3312 C21.5626,33.3312 25.0216,32.0202 27.9726,29.3992" id="Fill-5" fill="#1D1D1B" mask="url(#mask-2)"></path>
                </g>
                <path d="M44.0986,18.3571 L44.0986,36.8981 L49.9426,36.8981 C52.4916,36.8981 54.6716,35.9931 56.4846,34.1801 C58.2956,32.3691 59.2026,30.1811 59.2026,27.6171 C59.2026,25.0531 58.2956,22.8691 56.4846,21.0641 C54.6716,19.2591 52.4916,18.3571 49.9426,18.3571 L44.0986,18.3571 Z M50.5226,38.8321 C50.3356,38.8461 50.1426,38.8531 49.9426,38.8531 L44.0986,38.8531 L44.0986,50.7771 L42.1646,50.7771 L42.1646,16.4021 L51.1886,16.4021 C53.8096,16.7601 56.0366,17.8561 57.8696,19.6891 C60.0616,21.8801 61.1576,24.5231 61.1576,27.6171 C61.1576,30.7251 60.0616,33.3751 57.8696,35.5661 C56.3516,37.0851 54.6116,38.0801 52.6496,38.5521 L60.5776,50.7771 L58.1926,50.7771 L50.5226,38.8321 Z" id="Fill-8" fill="#1D1D1B"></path>
                <polygon id="Fill-10" fill="#1D1D1B" points="127.9599 16.402 127.9599 18.336 114.8549 18.336 114.8549 32.623 127.9599 32.623 127.9599 34.556 114.8549 34.556 114.8549 50.777 112.9209 50.777 112.9209 16.402"></polygon>
                <polygon id="Fill-12" fill="#1D1D1B" points="152.7148 18.3356 152.7148 50.7766 150.7808 50.7766 150.7808 18.3356 142.0798 18.3356 142.0798 16.4016 161.4158 16.4016 161.4158 18.3356"></polygon>
                <path d="M176.11988,38.3678775 C176.11988,38.9669099 176.331434,39.4635054 176.756769,39.8587777 C177.182104,40.25405 177.736599,40.4522428 178.421366,40.4522428 C178.932437,40.4522428 179.398969,40.3531464 179.818737,40.1549535 C180.238505,39.9589876 180.650479,39.6327488 181.056886,39.1795775 L177.988237,36.0675043 C177.350234,36.318029 176.880361,36.6353602 176.576391,37.021725 C176.272421,37.4080897 176.11988,37.8568072 176.11988,38.3678775 L176.11988,38.3678775 Z M183.485305,37.6719757 C183.154613,38.2342644 182.837281,38.7163852 182.533311,39.1216784 L184.719,41.3207284 L183.184676,41.3207284 L181.838523,39.9612145 C181.326339,40.5112553 180.795227,40.9031872 180.245186,41.1403506 C179.695145,41.3764005 179.082752,41.4955389 178.408005,41.4955389 C177.713217,41.4955389 177.101936,41.3663795 176.576391,41.1114011 C176.050846,40.8553092 175.639986,40.4990074 175.346037,40.0402689 C175.050974,39.5815304 174.904,39.0392837 174.904,38.4113018 C174.904,37.7265344 175.10442,37.1163676 175.505259,36.5808015 C175.906099,36.0452355 176.487316,35.6232406 177.250024,35.3148168 C176.921559,34.9574016 176.685509,34.6166881 176.539648,34.2937896 C176.3949,33.9708912 176.32364,33.6201566 176.32364,33.2438129 C176.32364,32.5969025 176.551896,32.0646767 177.010634,31.6449087 C177.468259,31.2251407 178.098468,31.0147 178.899033,31.0147 C179.421238,31.0147 179.87441,31.1137964 180.260774,31.3119893 C180.4534,31.4110857 180.62487,31.5279972 180.774071,31.6649507 L179.847687,32.3319031 C179.572666,32.1103279 179.256449,31.9989836 178.899033,31.9989836 C178.464791,31.9989836 178.127417,32.1158951 177.8858,32.3474913 C177.645297,32.5790874 177.525045,32.8719229 177.525045,33.2304516 C177.525045,33.5388753 177.608553,33.8383914 177.777796,34.1267732 C177.94704,34.4162683 178.199791,34.7402803 178.537164,35.096582 L181.736086,38.3244533 C181.899762,38.0884033 182.071233,37.8245174 182.25161,37.5316818 C182.281673,37.4826904 182.31285,37.4325854 182.342913,37.381367 L183.485305,37.6719757 Z" id="Fill-14" fill="#1D1D1B"></path>
                <polygon id="Fill-16" fill="#1D1D1B" points="201.213 16 214.125 38.344 227.016 16 229.229 16 229.143 16.15 229.143 50.375 227.209 50.375 227.209 19.502 214.125 42.146 201.02 19.502 201.02 50.375 199.086 50.375 199.086 16.15 199 16"></polygon>
                <polygon id="Fill-18" fill="#1D1D1B" points="241.4633 50.3753 243.3973 50.3753 243.3973 16.0003 241.4633 16.0003"></polygon>
                <polygon id="Fill-20" fill="#1D1D1B" points="255.4835 50.375 266.3765 31.49 257.4385 16 259.6515 16 267.4715 29.578 275.3355 16 277.5475 16 268.5675 31.49 279.5035 50.375 277.2905 50.375 267.4715 33.402 257.6745 50.375"></polygon>
            </g>
        </g>
    </g>
</svg>